<svg width="22" height="22" viewBox="0 0 22 22" fill="none" xmlns="http://www.w3.org/2000/svg">
<path fill-rule="evenodd" clip-rule="evenodd" d="M4.27603 20.6246C3.50741 20.6246 2.77728 20.3194 2.22728 19.7763C1.67728 19.2331 1.37891 18.4961 1.37891 17.7275V4.26627C1.37891 3.49764 1.68416 2.76752 2.22728 2.21752C2.77041 1.66752 3.50741 1.36914 4.27603 1.36914H17.7373C18.5059 1.36914 19.236 1.67439 19.786 2.21752C20.336 2.76064 20.6344 3.49764 20.6344 4.26627V17.7275C20.6344 18.4961 20.3292 19.2263 19.786 19.7763C19.2429 20.3263 18.5059 20.6246 17.7373 20.6246H4.27603ZM16.0323 12.4984H13.9973V19.2221H17.7373C17.9337 19.2227 18.1283 19.1844 18.3099 19.1095C18.4915 19.0346 18.6565 18.9245 18.7954 18.7856C18.9343 18.6467 19.0443 18.4817 19.1192 18.3001C19.1942 18.1185 19.2325 17.9239 19.2319 17.7275V4.26627C19.2321 4.06994 19.1936 3.8755 19.1185 3.69408C19.0435 3.51267 18.9334 3.34783 18.7945 3.209C18.6557 3.07018 18.4909 2.96009 18.3095 2.88504C18.128 2.81 17.9336 2.77146 17.7373 2.77164H4.27603C3.87997 2.77273 3.50044 2.93055 3.22037 3.21061C2.94031 3.49067 2.78249 3.8702 2.78141 4.26627V17.7275C2.78249 18.1236 2.94031 18.5031 3.22037 18.7832C3.50044 19.0632 3.87997 19.2211 4.27603 19.2221H11.756V12.4984H9.51478V10.2571H11.756V9.05264C11.756 6.77014 12.867 5.76639 14.7673 5.76639C15.6569 5.76639 16.1354 5.83102 16.3623 5.86264L16.376 5.86402V8.00902H15.0835C14.4318 8.00902 14.1238 8.28814 14.0303 8.85052C14.0078 8.99701 13.9972 9.14507 13.9987 9.29327V10.2516H16.3499L16.0295 12.4929L16.0323 12.4984Z" fill="#305CDE"/>
</svg>
