<svg width="22" height="22" viewBox="0 0 22 22" fill="none" xmlns="http://www.w3.org/2000/svg">
<g clip-path="url(#clip0_225_3012)">
<path fill-rule="evenodd" clip-rule="evenodd" d="M6.84227 0.976516C7.91752 0.927016 8.26035 0.916016 10.9993 0.916016C13.7383 0.916016 14.0812 0.927932 15.1555 0.976516C16.2299 1.0251 16.9632 1.19652 17.6049 1.44493C18.2768 1.69885 18.8864 2.09577 19.3905 2.6091C19.9039 3.11235 20.2999 3.72102 20.5529 4.39385C20.8022 5.03552 20.9727 5.76885 21.0222 6.84135C21.0717 7.91843 21.0827 8.26127 21.0827 10.9993C21.0827 13.7374 21.0708 14.0812 21.0222 15.1564C20.9736 16.2289 20.8022 16.9623 20.5529 17.6039C20.2997 18.2768 19.9031 18.8865 19.3905 19.3905C18.8864 19.9039 18.2768 20.2999 17.6049 20.5529C16.9632 20.8022 16.2299 20.9727 15.1574 21.0222C14.0812 21.0717 13.7383 21.0827 10.9993 21.0827C8.26035 21.0827 7.91752 21.0708 6.84227 21.0222C5.76977 20.9736 5.03643 20.8022 4.39477 20.5529C3.7219 20.2997 3.11224 19.9031 2.60818 19.3905C2.09538 18.8868 1.69843 18.2775 1.44493 17.6049C1.19652 16.9632 1.02602 16.2299 0.976516 15.1574C0.927016 14.0803 0.916016 13.7374 0.916016 10.9993C0.916016 8.26127 0.927932 7.91752 0.976516 6.84318C1.0251 5.76885 1.19652 5.03552 1.44493 4.39385C1.6987 3.72114 2.09597 3.11179 2.6091 2.60818C3.11254 2.09549 3.72156 1.69855 4.39385 1.44493C5.03552 1.19652 5.76977 1.02602 6.84227 0.976516ZM15.073 2.79152C14.0097 2.74293 13.6907 2.73285 10.9984 2.73285C8.30618 2.73285 7.98718 2.74293 6.92385 2.79152C5.94027 2.83643 5.40677 3.00052 5.0511 3.13893C4.58085 3.32227 4.24443 3.53952 3.89152 3.89243C3.55668 4.21766 3.29918 4.61394 3.13802 5.05202C2.9996 5.40768 2.83552 5.94118 2.7906 6.92477C2.74202 7.9881 2.73193 8.3071 2.73193 10.9993C2.73193 13.6916 2.74202 14.0106 2.7906 15.0739C2.83552 16.0575 2.9996 16.591 3.13802 16.9467C3.29935 17.3839 3.55693 17.7809 3.89152 18.1063C4.21693 18.4409 4.61385 18.6984 5.0511 18.8598C5.40677 18.9982 5.94027 19.1623 6.92385 19.2072C7.98718 19.2558 8.30527 19.2659 10.9984 19.2659C13.6916 19.2659 14.0097 19.2558 15.073 19.2072C16.0566 19.1623 16.5901 18.9982 16.9458 18.8598C17.416 18.6764 17.7524 18.4592 18.1054 18.1063C18.4399 17.7809 18.6975 17.3839 18.8589 16.9467C18.9973 16.591 19.1614 16.0575 19.2063 15.0739C19.2549 14.0106 19.2649 13.6916 19.2649 10.9993C19.2649 8.3071 19.2549 7.9881 19.2063 6.92477C19.1614 5.94118 18.9973 5.40768 18.8589 5.05202C18.6755 4.58177 18.4583 4.24535 18.1054 3.89243C17.7801 3.5576 17.3838 3.3001 16.9458 3.13893C16.5901 3.00052 16.0566 2.83643 15.073 2.79152ZM9.71052 14.1078C10.4298 14.4072 11.2307 14.4476 11.9765 14.2221C12.7222 13.9966 13.3665 13.5192 13.7994 12.8714C14.2323 12.2236 14.4268 11.4456 14.3498 10.6704C14.2728 9.89508 13.929 9.17058 13.3772 8.6206C13.0254 8.26904 12.6 7.99984 12.1317 7.8324C11.6634 7.66496 11.1638 7.60343 10.6689 7.65225C10.1739 7.70106 9.69599 7.85901 9.26942 8.11472C8.84285 8.37043 8.47828 8.71753 8.20196 9.13105C7.92564 9.54456 7.74444 10.0142 7.67141 10.5061C7.59837 10.9981 7.63532 11.5001 7.7796 11.9761C7.92387 12.452 8.17187 12.8901 8.50576 13.2587C8.83965 13.6273 9.25111 13.9173 9.71052 14.1078ZM7.33452 7.33452C7.81579 6.85324 8.38714 6.47148 9.01596 6.21101C9.64477 5.95055 10.3187 5.81649 10.9993 5.81649C11.68 5.81649 12.3539 5.95055 12.9827 6.21101C13.6116 6.47148 14.1829 6.85324 14.6642 7.33452C15.1455 7.81579 15.5272 8.38714 15.7877 9.01596C16.0481 9.64477 16.1822 10.3187 16.1822 10.9993C16.1822 11.68 16.0481 12.3539 15.7877 12.9827C15.5272 13.6116 15.1455 14.1829 14.6642 14.6642C13.6922 15.6362 12.3739 16.1822 10.9993 16.1822C9.62477 16.1822 8.30649 15.6362 7.33452 14.6642C6.36254 13.6922 5.81649 12.3739 5.81649 10.9993C5.81649 9.62477 6.36254 8.30649 7.33452 7.33452ZM17.3317 6.58835C17.4509 6.47585 17.5464 6.34056 17.6125 6.19049C17.6785 6.04043 17.7138 5.87864 17.7162 5.7147C17.7185 5.55077 17.688 5.38802 17.6264 5.23609C17.5647 5.08417 17.4732 4.94615 17.3573 4.83022C17.2414 4.71429 17.1034 4.62279 16.9514 4.56116C16.7995 4.49952 16.6368 4.46899 16.4728 4.47138C16.3089 4.47377 16.1471 4.50903 15.997 4.57507C15.847 4.64111 15.7117 4.73659 15.5992 4.85585C15.3804 5.08779 15.2606 5.39588 15.2652 5.7147C15.2699 6.03353 15.3986 6.33799 15.6241 6.56346C15.8495 6.78892 16.154 6.91764 16.4728 6.92229C16.7917 6.92694 17.0997 6.80715 17.3317 6.58835Z" fill="#305CDE"/>
</g>
<defs>
<clipPath id="clip0_225_3012">
<rect width="22" height="22" fill="white"/>
</clipPath>
</defs>
</svg>
