<svg width="164" height="58" viewBox="0 0 164 58" fill="none" xmlns="http://www.w3.org/2000/svg">
<path d="M3.728 43.96V46.232H7.392V48.344H3.728V50.808H7.872V53H0.992V41.768H7.872V43.96H3.728ZM20.4963 53H17.7603L13.1843 46.072V53H10.4483V41.768H13.1843L17.7603 48.728V41.768H20.4963V53ZM26.0155 43.96V46.232H29.6795V48.344H26.0155V50.808H30.1595V53H23.2795V41.768H30.1595V43.96H26.0155ZM37.6638 53L35.3278 48.76H34.6718V53H31.9358V41.768H36.5278C37.4131 41.768 38.1651 41.9227 38.7838 42.232C39.4131 42.5413 39.8824 42.968 40.1918 43.512C40.5011 44.0453 40.6558 44.6427 40.6558 45.304C40.6558 46.0507 40.4424 46.7173 40.0158 47.304C39.5998 47.8907 38.9811 48.3067 38.1598 48.552L40.7518 53H37.6638ZM34.6718 46.824H36.3678C36.8691 46.824 37.2424 46.7013 37.4878 46.456C37.7438 46.2107 37.8718 45.864 37.8718 45.416C37.8718 44.9893 37.7438 44.6533 37.4878 44.408C37.2424 44.1627 36.8691 44.04 36.3678 44.04H34.6718V46.824ZM49.5092 45.32C49.3066 44.9467 49.0132 44.664 48.6292 44.472C48.2559 44.2693 47.8132 44.168 47.3012 44.168C46.4159 44.168 45.7066 44.4613 45.1732 45.048C44.6399 45.624 44.3732 46.3973 44.3732 47.368C44.3732 48.4027 44.6506 49.2133 45.2052 49.8C45.7706 50.376 46.5439 50.664 47.5252 50.664C48.1972 50.664 48.7626 50.4933 49.2212 50.152C49.6906 49.8107 50.0319 49.32 50.2452 48.68H46.7732V46.664H52.7252V49.208C52.5226 49.8907 52.1759 50.5253 51.6852 51.112C51.2052 51.6987 50.5919 52.1733 49.8452 52.536C49.0986 52.8987 48.2559 53.08 47.3172 53.08C46.2079 53.08 45.2159 52.84 44.3412 52.36C43.4772 51.8693 42.7999 51.192 42.3092 50.328C41.8292 49.464 41.5892 48.4773 41.5892 47.368C41.5892 46.2587 41.8292 45.272 42.3092 44.408C42.7999 43.5333 43.4772 42.856 44.3412 42.376C45.2052 41.8853 46.1919 41.64 47.3012 41.64C48.6452 41.64 49.7759 41.9653 50.6932 42.616C51.6212 43.2667 52.2346 44.168 52.5332 45.32H49.5092ZM63.5527 41.768L59.6647 49.288V53H56.9287V49.288L53.0407 41.768H56.1447L58.3207 46.472L60.4807 41.768H63.5527Z" fill="#01A85A"/>
<path d="M76.056 53.112C75.2347 53.112 74.4987 52.9787 73.848 52.712C73.1973 52.4453 72.6747 52.0507 72.28 51.528C71.896 51.0053 71.6933 50.376 71.672 49.64H74.584C74.6267 50.056 74.7707 50.376 75.016 50.6C75.2613 50.8133 75.5813 50.92 75.976 50.92C76.3813 50.92 76.7013 50.8293 76.936 50.648C77.1707 50.456 77.288 50.1947 77.288 49.864C77.288 49.5867 77.192 49.3573 77 49.176C76.8187 48.9947 76.5893 48.8453 76.312 48.728C76.0453 48.6107 75.6613 48.4773 75.16 48.328C74.4347 48.104 73.8427 47.88 73.384 47.656C72.9253 47.432 72.5307 47.1013 72.2 46.664C71.8693 46.2267 71.704 45.656 71.704 44.952C71.704 43.9067 72.0827 43.0907 72.84 42.504C73.5973 41.9067 74.584 41.608 75.8 41.608C77.0373 41.608 78.0347 41.9067 78.792 42.504C79.5493 43.0907 79.9547 43.912 80.008 44.968H77.048C77.0267 44.6053 76.8933 44.3227 76.648 44.12C76.4027 43.9067 76.088 43.8 75.704 43.8C75.3733 43.8 75.1067 43.8907 74.904 44.072C74.7013 44.2427 74.6 44.4933 74.6 44.824C74.6 45.1867 74.7707 45.4693 75.112 45.672C75.4533 45.8747 75.9867 46.0933 76.712 46.328C77.4373 46.5733 78.024 46.808 78.472 47.032C78.9307 47.256 79.3253 47.5813 79.656 48.008C79.9867 48.4347 80.152 48.984 80.152 49.656C80.152 50.296 79.9867 50.8773 79.656 51.4C79.336 51.9227 78.8667 52.3387 78.248 52.648C77.6293 52.9573 76.8987 53.112 76.056 53.112ZM86.8278 53.112C85.7718 53.112 84.8011 52.8667 83.9158 52.376C83.0411 51.8853 82.3424 51.2027 81.8198 50.328C81.3078 49.4427 81.0518 48.4507 81.0518 47.352C81.0518 46.2533 81.3078 45.2667 81.8198 44.392C82.3424 43.5173 83.0411 42.8347 83.9158 42.344C84.8011 41.8533 85.7718 41.608 86.8278 41.608C87.8838 41.608 88.8491 41.8533 89.7238 42.344C90.6091 42.8347 91.3024 43.5173 91.8038 44.392C92.3158 45.2667 92.5718 46.2533 92.5718 47.352C92.5718 48.4507 92.3158 49.4427 91.8038 50.328C91.2918 51.2027 90.5984 51.8853 89.7238 52.376C88.8491 52.8667 87.8838 53.112 86.8278 53.112ZM86.8278 50.616C87.7238 50.616 88.4384 50.3173 88.9718 49.72C89.5158 49.1227 89.7878 48.3333 89.7878 47.352C89.7878 46.36 89.5158 45.5707 88.9718 44.984C88.4384 44.3867 87.7238 44.088 86.8278 44.088C85.9211 44.088 85.1958 44.3813 84.6518 44.968C84.1184 45.5547 83.8518 46.3493 83.8518 47.352C83.8518 48.344 84.1184 49.1387 84.6518 49.736C85.1958 50.3227 85.9211 50.616 86.8278 50.616ZM97.4699 50.888H101.054V53H94.7339V41.768H97.4699V50.888ZM105.207 41.768V48.488C105.207 49.16 105.372 49.6773 105.703 50.04C106.034 50.4027 106.519 50.584 107.159 50.584C107.799 50.584 108.29 50.4027 108.631 50.04C108.972 49.6773 109.143 49.16 109.143 48.488V41.768H111.879V48.472C111.879 49.4747 111.666 50.3227 111.239 51.016C110.812 51.7093 110.236 52.232 109.511 52.584C108.796 52.936 107.996 53.112 107.111 53.112C106.226 53.112 105.431 52.9413 104.727 52.6C104.034 52.248 103.484 51.7253 103.079 51.032C102.674 50.328 102.471 49.4747 102.471 48.472V41.768H105.207ZM122.04 41.768V43.96H119.064V53H116.328V43.96H113.352V41.768H122.04ZM125.989 41.768V53H123.253V41.768H125.989ZM133.764 53.112C132.708 53.112 131.737 52.8667 130.852 52.376C129.977 51.8853 129.279 51.2027 128.756 50.328C128.244 49.4427 127.988 48.4507 127.988 47.352C127.988 46.2533 128.244 45.2667 128.756 44.392C129.279 43.5173 129.977 42.8347 130.852 42.344C131.737 41.8533 132.708 41.608 133.764 41.608C134.82 41.608 135.785 41.8533 136.66 42.344C137.545 42.8347 138.239 43.5173 138.74 44.392C139.252 45.2667 139.508 46.2533 139.508 47.352C139.508 48.4507 139.252 49.4427 138.74 50.328C138.228 51.2027 137.535 51.8853 136.66 52.376C135.785 52.8667 134.82 53.112 133.764 53.112ZM133.764 50.616C134.66 50.616 135.375 50.3173 135.908 49.72C136.452 49.1227 136.724 48.3333 136.724 47.352C136.724 46.36 136.452 45.5707 135.908 44.984C135.375 44.3867 134.66 44.088 133.764 44.088C132.857 44.088 132.132 44.3813 131.588 44.968C131.055 45.5547 130.788 46.3493 130.788 47.352C130.788 48.344 131.055 49.1387 131.588 49.736C132.132 50.3227 132.857 50.616 133.764 50.616ZM152.198 53H149.462L144.886 46.072V53H142.15V41.768H144.886L149.462 48.728V41.768H152.198V53ZM158.245 53.112C157.424 53.112 156.688 52.9787 156.037 52.712C155.387 52.4453 154.864 52.0507 154.469 51.528C154.085 51.0053 153.883 50.376 153.861 49.64H156.773C156.816 50.056 156.96 50.376 157.205 50.6C157.451 50.8133 157.771 50.92 158.165 50.92C158.571 50.92 158.891 50.8293 159.125 50.648C159.36 50.456 159.477 50.1947 159.477 49.864C159.477 49.5867 159.381 49.3573 159.189 49.176C159.008 48.9947 158.779 48.8453 158.501 48.728C158.235 48.6107 157.851 48.4773 157.349 48.328C156.624 48.104 156.032 47.88 155.573 47.656C155.115 47.432 154.72 47.1013 154.389 46.664C154.059 46.2267 153.893 45.656 153.893 44.952C153.893 43.9067 154.272 43.0907 155.029 42.504C155.787 41.9067 156.773 41.608 157.989 41.608C159.227 41.608 160.224 41.9067 160.981 42.504C161.739 43.0907 162.144 43.912 162.197 44.968H159.237C159.216 44.6053 159.083 44.3227 158.837 44.12C158.592 43.9067 158.277 43.8 157.893 43.8C157.563 43.8 157.296 43.8907 157.093 44.072C156.891 44.2427 156.789 44.4933 156.789 44.824C156.789 45.1867 156.96 45.4693 157.301 45.672C157.643 45.8747 158.176 46.0933 158.901 46.328C159.627 46.5733 160.213 46.808 160.661 47.032C161.12 47.256 161.515 47.5813 161.845 48.008C162.176 48.4347 162.341 48.984 162.341 49.656C162.341 50.296 162.176 50.8773 161.845 51.4C161.525 51.9227 161.056 52.3387 160.437 52.648C159.819 52.9573 159.088 53.112 158.245 53.112Z" fill="#01A85A"/>
<path d="M39.3008 33.5594V24.4704H51.3515V33.5594H39.3008Z" fill="#01A85A"/>
<path d="M59.1489 33.5594H73.0899V25.4026H90.6934C91.4022 25.4026 91.9929 25.8687 91.9929 26.5679V33.5595H104.162V25.4026C104.162 22.9556 102.558 21.3059 100.499 19.8094C102.361 18.116 104.162 16.7797 104.162 14.0996V6.87503C104.162 3.6123 100.027 0 96.3643 0H61.5118V9.32207H90.1588C93.5288 9.32207 93.4107 15.6888 89.5119 15.6888H59.1489V33.5594Z" fill="#01A85A"/>
<path d="M32.2107 33.5595H19.6875L39.2994 0H52.0589L71.7889 33.5595H59.1475L45.6791 11.1865L32.2107 33.5595Z" fill="white"/>
<path d="M115.62 33.5595H104.278V0H115.62V33.5595Z" fill="white"/>
<path d="M119.401 12.8178V20.9747H134.169V33.5595H145.393V12.4683H132.397L146.574 0H134.287L119.401 12.8178Z" fill="white"/>
</svg>
