<svg width="22" height="22" viewBox="0 0 22 22" fill="none" xmlns="http://www.w3.org/2000/svg">
<path d="M18.0854 3.76454C17.1639 2.88495 16.0664 2.18752 14.8568 1.71289C13.6472 1.23827 12.3498 0.99595 11.0402 1.00005C5.55276 1.00005 1.0804 5.22754 1.0804 10.4145C1.0804 12.077 1.54271 13.692 2.40704 15.117L1 20L6.27638 18.689C7.73367 19.4395 9.37186 19.8385 11.0402 19.8385C16.5276 19.8385 21 15.611 21 10.424C21 7.90653 19.9648 5.54104 18.0854 3.76454ZM11.0402 18.2425C9.55276 18.2425 8.09548 17.8625 6.81909 17.15L6.51759 16.979L3.38191 17.758L4.21608 14.87L4.01508 14.5755C3.18849 13.3282 2.74967 11.8863 2.74874 10.4145C2.74874 6.10154 6.46734 2.58655 11.0301 2.58655C13.2412 2.58655 15.3216 3.40355 16.8794 4.88554C17.6509 5.61121 18.2622 6.47445 18.678 7.4252C19.0938 8.37594 19.3057 9.39526 19.3015 10.424C19.3216 14.737 15.603 18.2425 11.0402 18.2425ZM15.5829 12.3905C15.3317 12.2765 14.1055 11.7065 13.8844 11.621C13.6533 11.545 13.4925 11.507 13.3216 11.735C13.1508 11.9725 12.6784 12.5045 12.5377 12.6565C12.397 12.818 12.2462 12.837 11.995 12.7135C11.7437 12.5995 10.9397 12.343 9.99497 11.545C9.25126 10.918 8.75879 10.1485 8.60804 9.91103C8.46734 9.67353 8.58794 9.55003 8.71859 9.42653C8.82914 9.32203 8.96985 9.15103 9.09045 9.01803C9.21105 8.88503 9.26131 8.78053 9.34171 8.62853C9.42211 8.46703 9.38191 8.33403 9.32161 8.22003C9.26131 8.10603 8.75879 6.94704 8.55779 6.47204C8.35678 6.01604 8.14573 6.07304 7.99497 6.06354H7.51256C7.34171 6.06354 7.0804 6.12054 6.84925 6.35804C6.62814 6.59554 5.98492 7.16553 5.98492 8.32453C5.98492 9.48353 6.8794 10.6045 7 10.7565C7.1206 10.918 8.75879 13.293 11.2513 14.3095C11.8442 14.5565 12.3065 14.699 12.6683 14.8035C13.2613 14.984 13.804 14.9555 14.2362 14.8985C14.7186 14.832 15.7136 14.3285 15.9146 13.7775C16.1256 13.2265 16.1256 12.761 16.0553 12.6565C15.9849 12.552 15.8342 12.5045 15.5829 12.3905Z" fill="#305CDE"/>
</svg>
