<svg width="22" height="22" viewBox="0 0 22 22" fill="none" xmlns="http://www.w3.org/2000/svg">
<path d="M12.8333 11.0013L9.625 12.8346V9.16797L12.8333 11.0013Z" fill="#305CDE" stroke="#305CDE" stroke-width="2" stroke-linecap="round" stroke-linejoin="round"/>
<path d="M1.83398 11.6495V10.3515C1.83398 7.69777 1.83398 6.37044 2.66357 5.51702C3.49407 4.66269 4.80123 4.62602 7.41465 4.55177C8.65215 4.51694 9.91715 4.49219 11.0007 4.49219C12.0842 4.49219 13.3482 4.51694 14.5867 4.55177C17.2001 4.62602 18.5072 4.66269 19.3368 5.51702C20.1664 6.37135 20.1673 7.69869 20.1673 10.3515V11.6486C20.1673 14.3033 20.1673 15.6297 19.3377 16.484C18.5072 17.3374 17.201 17.375 14.5867 17.4484C13.3492 17.4841 12.0842 17.5089 11.0007 17.5089C9.91715 17.5089 8.65307 17.4841 7.41465 17.4484C4.80123 17.375 3.49407 17.3384 2.66357 16.484C1.83307 15.6297 1.83398 14.3024 1.83398 11.6495Z" stroke="#305CDE" stroke-width="2"/>
</svg>
