<svg width="17" height="17" viewBox="0 0 17 17" fill="none" xmlns="http://www.w3.org/2000/svg">
<path d="M12.1787 0.0175781C14.5553 0.0178049 16.4814 1.94463 16.4814 4.32129V12.1787C16.4812 14.5552 14.5552 16.4812 12.1787 16.4814H4.32129C1.94463 16.4814 0.0178049 14.5553 0.0175781 12.1787V4.32129C0.017579 1.94449 1.9445 0.017581 4.32129 0.0175781H12.1787ZM4.32129 0.767578C2.35871 0.767581 0.767579 2.35871 0.767578 4.32129V12.1787C0.767805 14.1411 2.35885 15.7314 4.32129 15.7314H12.1787C14.141 15.7312 15.7312 14.141 15.7314 12.1787V4.32129C15.7314 2.35885 14.1411 0.767805 12.1787 0.767578H4.32129ZM6.66309 5.09277C7.31978 4.75203 8.06797 4.62689 8.7998 4.73535C9.54599 4.84607 10.237 5.19427 10.7705 5.72754C11.3041 6.26112 11.6529 6.9528 11.7637 7.69922C11.8721 8.43085 11.7468 9.17839 11.4062 9.83496C11.0655 10.4917 10.5261 11.0248 9.86523 11.3574C9.20431 11.6901 8.45514 11.806 7.72461 11.6885C6.99419 11.5709 6.31904 11.2253 5.7959 10.7021C5.27314 10.1791 4.92812 9.50449 4.81055 8.77441C4.69312 8.04405 4.80903 7.29457 5.1416 6.63379C5.47424 5.97305 6.00649 5.43352 6.66309 5.09277ZM8.68945 5.47754C8.11366 5.39222 7.52546 5.4907 7.00879 5.75879C6.49223 6.02685 6.07326 6.45092 5.81152 6.9707C5.54985 7.49058 5.45842 8.08064 5.55078 8.65527C5.64329 9.22961 5.91495 9.7604 6.32617 10.1719C6.73777 10.5835 7.26907 10.8557 7.84375 10.9482C8.41852 11.0407 9.00831 10.9492 9.52832 10.6875C10.0481 10.4258 10.4721 10.0068 10.7402 9.49023C11.0082 8.97367 11.1067 8.38521 11.0215 7.80957C10.9343 7.22233 10.66 6.67761 10.2402 6.25781C9.82041 5.83826 9.27658 5.56461 8.68945 5.47754ZM12.5811 3.55371C12.7881 3.55378 12.9561 3.72165 12.9561 3.92871C12.9558 4.13558 12.788 4.30364 12.5811 4.30371H12.5713C12.3643 4.30371 12.1965 4.13563 12.1963 3.92871C12.1963 3.7216 12.3642 3.55371 12.5713 3.55371H12.5811Z" fill="black"/>
</svg>
