<svg width="143" height="50" viewBox="0 0 143 50" fill="none" xmlns="http://www.w3.org/2000/svg">
<path d="M2.796 36.0794V37.7834H5.544V39.3674H2.796V41.2154H5.904V42.8594H0.744V34.4354H5.904V36.0794H2.796ZM15.3722 42.8594H13.3202L9.88819 37.6634V42.8594H7.83619V34.4354H9.88819L13.3202 39.6554V34.4354H15.3722V42.8594ZM19.5116 36.0794V37.7834H22.2596V39.3674H19.5116V41.2154H22.6196V42.8594H17.4596V34.4354H22.6196V36.0794H19.5116ZM28.2478 42.8594L26.4958 39.6794H26.0038V42.8594H23.9518V34.4354H27.3958C28.0598 34.4354 28.6238 34.5514 29.0878 34.7834C29.5598 35.0154 29.9118 35.3354 30.1438 35.7434C30.3758 36.1434 30.4918 36.5914 30.4918 37.0874C30.4918 37.6474 30.3318 38.1474 30.0118 38.5874C29.6998 39.0274 29.2358 39.3394 28.6198 39.5234L30.5638 42.8594H28.2478ZM26.0038 38.2274H27.2758C27.6518 38.2274 27.9318 38.1354 28.1158 37.9514C28.3078 37.7674 28.4038 37.5074 28.4038 37.1714C28.4038 36.8514 28.3078 36.5994 28.1158 36.4154C27.9318 36.2314 27.6518 36.1394 27.2758 36.1394H26.0038V38.2274ZM37.1319 37.0994C36.9799 36.8194 36.7599 36.6074 36.4719 36.4634C36.1919 36.3114 35.8599 36.2354 35.4759 36.2354C34.8119 36.2354 34.2799 36.4554 33.8799 36.8954C33.4799 37.3274 33.2799 37.9074 33.2799 38.6354C33.2799 39.4114 33.4879 40.0194 33.9039 40.4594C34.3279 40.8914 34.9079 41.1074 35.6439 41.1074C36.1479 41.1074 36.5719 40.9794 36.9159 40.7234C37.2679 40.4674 37.5239 40.0994 37.6839 39.6194H35.0799V38.1074H39.5439V40.0154C39.3919 40.5274 39.1319 41.0034 38.7639 41.4434C38.4039 41.8834 37.9439 42.2394 37.3839 42.5114C36.8239 42.7834 36.1919 42.9194 35.4879 42.9194C34.6559 42.9194 33.9119 42.7394 33.2559 42.3794C32.6079 42.0114 32.0999 41.5034 31.7319 40.8554C31.3719 40.2074 31.1919 39.4674 31.1919 38.6354C31.1919 37.8034 31.3719 37.0634 31.7319 36.4154C32.0999 35.7594 32.6079 35.2514 33.2559 34.8914C33.9039 34.5234 34.6439 34.3394 35.4759 34.3394C36.4839 34.3394 37.3319 34.5834 38.0199 35.0714C38.7159 35.5594 39.1759 36.2354 39.3999 37.0994H37.1319ZM47.6646 34.4354L44.7486 40.0754V42.8594H42.6966V40.0754L39.7806 34.4354H42.1086L43.7406 37.9634L45.3606 34.4354H47.6646Z" fill="#01A85A"/>
<path d="M64.9209 42.9434C64.3049 42.9434 63.7529 42.8434 63.2649 42.6434C62.7769 42.4434 62.3849 42.1474 62.0889 41.7554C61.8009 41.3634 61.6489 40.8914 61.6329 40.3394H63.8169C63.8489 40.6514 63.9569 40.8914 64.1409 41.0594C64.3249 41.2194 64.5649 41.2994 64.8609 41.2994C65.1649 41.2994 65.4049 41.2314 65.5809 41.0954C65.7569 40.9514 65.8449 40.7554 65.8449 40.5074C65.8449 40.2994 65.7729 40.1274 65.6289 39.9914C65.4929 39.8554 65.3209 39.7434 65.1129 39.6554C64.9129 39.5674 64.6249 39.4674 64.2489 39.3554C63.7049 39.1874 63.2609 39.0194 62.9169 38.8514C62.5729 38.6834 62.2769 38.4354 62.0289 38.1074C61.7809 37.7794 61.6569 37.3514 61.6569 36.8234C61.6569 36.0394 61.9409 35.4274 62.5089 34.9874C63.0769 34.5394 63.8169 34.3154 64.7289 34.3154C65.6569 34.3154 66.4049 34.5394 66.9729 34.9874C67.5409 35.4274 67.8449 36.0434 67.8849 36.8354H65.6649C65.6489 36.5634 65.5489 36.3514 65.3649 36.1994C65.1809 36.0394 64.9449 35.9594 64.6569 35.9594C64.4089 35.9594 64.2089 36.0274 64.0569 36.1634C63.9049 36.2914 63.8289 36.4794 63.8289 36.7274C63.8289 36.9994 63.9569 37.2114 64.2129 37.3634C64.4689 37.5154 64.8689 37.6794 65.4129 37.8554C65.9569 38.0394 66.3969 38.2154 66.7329 38.3834C67.0769 38.5514 67.3729 38.7954 67.6209 39.1154C67.8689 39.4354 67.9929 39.8474 67.9929 40.3514C67.9929 40.8314 67.8689 41.2674 67.6209 41.6594C67.3809 42.0514 67.0289 42.3634 66.5649 42.5954C66.1009 42.8274 65.5529 42.9434 64.9209 42.9434ZM72.9997 42.9434C72.2077 42.9434 71.4797 42.7594 70.8157 42.3914C70.1597 42.0234 69.6357 41.5114 69.2437 40.8554C68.8597 40.1914 68.6677 39.4474 68.6677 38.6234C68.6677 37.7994 68.8597 37.0594 69.2437 36.4034C69.6357 35.7474 70.1597 35.2354 70.8157 34.8674C71.4797 34.4994 72.2077 34.3154 72.9997 34.3154C73.7917 34.3154 74.5157 34.4994 75.1717 34.8674C75.8357 35.2354 76.3557 35.7474 76.7317 36.4034C77.1157 37.0594 77.3077 37.7994 77.3077 38.6234C77.3077 39.4474 77.1157 40.1914 76.7317 40.8554C76.3477 41.5114 75.8277 42.0234 75.1717 42.3914C74.5157 42.7594 73.7917 42.9434 72.9997 42.9434ZM72.9997 41.0714C73.6717 41.0714 74.2077 40.8474 74.6077 40.3994C75.0157 39.9514 75.2197 39.3594 75.2197 38.6234C75.2197 37.8794 75.0157 37.2874 74.6077 36.8474C74.2077 36.3994 73.6717 36.1754 72.9997 36.1754C72.3197 36.1754 71.7757 36.3954 71.3677 36.8354C70.9677 37.2754 70.7677 37.8714 70.7677 38.6234C70.7677 39.3674 70.9677 39.9634 71.3677 40.4114C71.7757 40.8514 72.3197 41.0714 72.9997 41.0714ZM80.9813 41.2754H83.6693V42.8594H78.9293V34.4354H80.9813V41.2754ZM86.7841 34.4354V39.4754C86.7841 39.9794 86.9081 40.3674 87.1561 40.6394C87.4041 40.9114 87.7681 41.0474 88.2481 41.0474C88.7281 41.0474 89.0961 40.9114 89.3521 40.6394C89.6081 40.3674 89.7361 39.9794 89.7361 39.4754V34.4354H91.7881V39.4634C91.7881 40.2154 91.6281 40.8514 91.3081 41.3714C90.9881 41.8914 90.5561 42.2834 90.0121 42.5474C89.4761 42.8114 88.8761 42.9434 88.2121 42.9434C87.5481 42.9434 86.9521 42.8154 86.4241 42.5594C85.9041 42.2954 85.4921 41.9034 85.1881 41.3834C84.8841 40.8554 84.7321 40.2154 84.7321 39.4634V34.4354H86.7841ZM99.409 34.4354V36.0794H97.177V42.8594H95.125V36.0794H92.893V34.4354H99.409ZM102.371 34.4354V42.8594H100.319V34.4354H102.371ZM108.202 42.9434C107.41 42.9434 106.682 42.7594 106.018 42.3914C105.362 42.0234 104.838 41.5114 104.446 40.8554C104.062 40.1914 103.87 39.4474 103.87 38.6234C103.87 37.7994 104.062 37.0594 104.446 36.4034C104.838 35.7474 105.362 35.2354 106.018 34.8674C106.682 34.4994 107.41 34.3154 108.202 34.3154C108.994 34.3154 109.718 34.4994 110.374 34.8674C111.038 35.2354 111.558 35.7474 111.934 36.4034C112.318 37.0594 112.51 37.7994 112.51 38.6234C112.51 39.4474 112.318 40.1914 111.934 40.8554C111.55 41.5114 111.03 42.0234 110.374 42.3914C109.718 42.7594 108.994 42.9434 108.202 42.9434ZM108.202 41.0714C108.874 41.0714 109.41 40.8474 109.81 40.3994C110.218 39.9514 110.422 39.3594 110.422 38.6234C110.422 37.8794 110.218 37.2874 109.81 36.8474C109.41 36.3994 108.874 36.1754 108.202 36.1754C107.522 36.1754 106.978 36.3954 106.57 36.8354C106.17 37.2754 105.97 37.8714 105.97 38.6234C105.97 39.3674 106.17 39.9634 106.57 40.4114C106.978 40.8514 107.522 41.0714 108.202 41.0714ZM122.028 42.8594H119.976L116.544 37.6634V42.8594H114.492V34.4354H116.544L119.976 39.6554V34.4354H122.028V42.8594ZM126.563 42.9434C125.947 42.9434 125.395 42.8434 124.907 42.6434C124.419 42.4434 124.027 42.1474 123.731 41.7554C123.443 41.3634 123.291 40.8914 123.275 40.3394H125.459C125.491 40.6514 125.599 40.8914 125.783 41.0594C125.967 41.2194 126.207 41.2994 126.503 41.2994C126.807 41.2994 127.047 41.2314 127.223 41.0954C127.399 40.9514 127.487 40.7554 127.487 40.5074C127.487 40.2994 127.415 40.1274 127.271 39.9914C127.135 39.8554 126.963 39.7434 126.755 39.6554C126.555 39.5674 126.267 39.4674 125.891 39.3554C125.347 39.1874 124.903 39.0194 124.559 38.8514C124.215 38.6834 123.919 38.4354 123.671 38.1074C123.423 37.7794 123.299 37.3514 123.299 36.8234C123.299 36.0394 123.583 35.4274 124.151 34.9874C124.719 34.5394 125.459 34.3154 126.371 34.3154C127.299 34.3154 128.047 34.5394 128.615 34.9874C129.183 35.4274 129.487 36.0434 129.527 36.8354H127.307C127.291 36.5634 127.191 36.3514 127.007 36.1994C126.823 36.0394 126.587 35.9594 126.299 35.9594C126.051 35.9594 125.851 36.0274 125.699 36.1634C125.547 36.2914 125.471 36.4794 125.471 36.7274C125.471 36.9994 125.599 37.2114 125.855 37.3634C126.111 37.5154 126.511 37.6794 127.055 37.8554C127.599 38.0394 128.039 38.2154 128.375 38.3834C128.719 38.5514 129.015 38.7954 129.263 39.1154C129.511 39.4354 129.635 39.8474 129.635 40.3514C129.635 40.8314 129.511 41.2674 129.263 41.6594C129.023 42.0514 128.671 42.3634 128.207 42.5954C127.743 42.8274 127.195 42.9434 126.563 42.9434Z" fill="#01A85A"/>
<path d="M33.4355 28.9014V21.0739H43.8136V28.9014H33.4355Z" fill="#01A85A"/>
<path d="M50.5288 28.9014H62.5347V21.8767H77.6948C78.3053 21.8767 78.814 22.2782 78.814 22.8803V28.9014H89.2938V21.8767C89.2938 19.7694 87.9127 18.3486 86.1397 17.0598C87.7428 15.6015 89.2938 14.4507 89.2938 12.1426V5.92077C89.2938 3.11091 85.7327 0 82.5786 0H52.5637V8.02816H77.2345C80.1367 8.02816 80.035 13.5112 76.6774 13.5112H50.5288V28.9014Z" fill="#01A85A"/>
<path d="M27.3299 28.9014H16.5449L33.4347 0H44.4232L61.4147 28.9014H50.5279L38.9289 9.6338L27.3299 28.9014Z" fill="#2E3192"/>
<path d="M99.1622 28.9014H89.3947V0H99.1622V28.9014Z" fill="#2E3192"/>
<path d="M102.418 11.0387V18.0634H115.136V28.9014H124.802V10.7377H113.61L125.82 0H115.238L102.418 11.0387Z" fill="#2E3192"/>
</svg>
