<svg width="18" height="18" viewBox="0 0 18 18" fill="none" xmlns="http://www.w3.org/2000/svg">
<path d="M3.462 16.25C3.1165 16.25 2.82825 16.1345 2.59725 15.9035C2.36625 15.6725 2.2505 15.384 2.25 15.038V6.962C2.25 6.6165 2.36575 6.32825 2.59725 6.09725C2.82875 5.86625 3.11675 5.7505 3.46125 5.75H14.5387C14.8837 5.75 15.1718 5.86575 15.4028 6.09725C15.6338 6.32875 15.7495 6.617 15.75 6.962V15.0388C15.75 15.3838 15.6343 15.672 15.4028 15.9035C15.1713 16.135 14.8833 16.2505 14.5387 16.25H3.462ZM9 11.087L3 7.16375V15.0388C3 15.1733 3.04325 15.2838 3.12975 15.3703C3.21625 15.4568 3.327 15.5 3.462 15.5H14.5387C14.6733 15.5 14.7837 15.4568 14.8702 15.3703C14.9567 15.2838 15 15.173 15 15.038V7.163L9 11.087ZM9 10.25L14.769 6.5H3.231L9 10.25ZM3 7.16375V6.5V15.0388C3 15.1733 3.04325 15.2838 3.12975 15.3703C3.21625 15.4568 3.327 15.5 3.462 15.5H3V7.16375Z" fill="black"/>
</svg>
