<svg width="17" height="17" viewBox="0 0 17 17" fill="none" xmlns="http://www.w3.org/2000/svg">
<path d="M13.1256 9.8836L10.5654 8.6036C10.515 8.57849 10.4589 8.56712 10.4027 8.57063C10.3466 8.57414 10.2923 8.59241 10.2454 8.6236L8.91411 9.5116C8.1823 9.16067 7.59215 8.57056 7.24119 7.8388L8.12926 6.5076C8.16045 6.46073 8.17872 6.40647 8.18223 6.35029C8.18574 6.2941 8.17437 6.23798 8.14926 6.1876L6.86916 3.6276C6.84261 3.57416 6.80164 3.52922 6.75089 3.49783C6.70013 3.46645 6.64162 3.44988 6.58194 3.45C5.81806 3.45 5.08547 3.75343 4.54532 4.29353C4.00518 4.83364 3.70173 5.56618 3.70173 6.33C3.70363 8.11167 4.4123 9.81982 5.67222 11.0797C6.93215 12.3395 8.64043 13.0481 10.4222 13.05C11.1861 13.05 11.9187 12.7466 12.4588 12.2065C12.999 11.6664 13.3024 10.9338 13.3024 10.17C13.3025 10.1105 13.286 10.0523 13.2547 10.0017C13.2235 9.95109 13.1788 9.9102 13.1256 9.8836ZM10.4222 12.41C8.81011 12.4083 7.26451 11.7672 6.12457 10.6273C4.98463 9.48748 4.34347 7.942 4.34177 6.33C4.34168 5.76936 4.55184 5.22907 4.93074 4.81583C5.30964 4.4026 5.82975 4.14645 6.38833 4.098L7.49241 6.3068L6.61234 7.63C6.58301 7.67366 6.56489 7.72387 6.55959 7.77619C6.55429 7.82852 6.56196 7.88135 6.58194 7.93C7.00713 8.94076 7.81127 9.74484 8.82211 10.17C8.87081 10.1902 8.92375 10.1981 8.97624 10.193C9.02872 10.1878 9.07911 10.1697 9.12293 10.1404L10.4462 9.2604L12.6552 10.3644C12.6065 10.9229 12.3502 11.4429 11.9368 11.8216C11.5233 12.2004 10.9829 12.4103 10.4222 12.41ZM8.50208 0.25C7.10925 0.249741 5.74048 0.613079 4.53116 1.30407C3.32184 1.99507 2.31388 2.98977 1.60699 4.1898C0.900087 5.38983 0.518742 6.7536 0.500673 8.14622C0.482604 9.53883 0.828437 10.912 1.50396 12.13L0.551891 14.9852C0.495477 15.1543 0.487291 15.3359 0.528248 15.5094C0.569205 15.6829 0.657688 15.8416 0.783779 15.9677C0.90987 16.0938 1.06859 16.1823 1.24214 16.2232C1.41569 16.2642 1.59722 16.256 1.76638 16.1996L4.6218 15.2476C5.68992 15.8394 6.87934 16.1789 8.09894 16.24C9.31854 16.3011 10.5359 16.0822 11.6579 15.6002C12.7798 15.1182 13.7765 14.3857 14.5716 13.459C15.3667 12.5322 15.9391 11.4358 16.245 10.2537C16.5508 9.07158 16.582 7.83514 16.3361 6.63911C16.0902 5.44308 15.5738 4.31921 14.8264 3.35359C14.079 2.38797 13.1205 1.60624 12.0243 1.06828C10.928 0.530317 9.72321 0.25041 8.50208 0.25ZM8.50208 15.61C7.20796 15.6104 5.93661 15.2696 4.81621 14.622C4.76752 14.594 4.71238 14.5791 4.6562 14.5788C4.62164 14.5789 4.58733 14.5846 4.55459 14.5956L1.56397 15.5924C1.50758 15.6112 1.44707 15.6139 1.38922 15.6003C1.33137 15.5866 1.27846 15.5571 1.23643 15.5151C1.1944 15.4731 1.16491 15.4202 1.15126 15.3623C1.1376 15.3045 1.14033 15.244 1.15914 15.1876L2.15601 12.1972C2.17039 12.1542 2.17547 12.1087 2.17092 12.0636C2.16637 12.0185 2.15229 11.9748 2.12961 11.9356C1.31811 10.533 0.992207 8.90181 1.20246 7.2951C1.41271 5.68838 2.14736 4.19596 3.29244 3.04935C4.43753 1.90275 5.92903 1.16605 7.53556 0.953558C9.1421 0.741064 10.7739 1.06465 12.1777 1.87411C13.5816 2.68358 14.679 3.93367 15.2998 5.43046C15.9206 6.92726 16.0301 8.58707 15.6112 10.1524C15.1923 11.7178 14.2685 13.1011 12.9832 14.0879C11.6978 15.0747 10.1226 15.6097 8.50208 15.61Z" fill="black"/>
</svg>
