<svg width="21" height="17" viewBox="0 0 21 17" fill="none" xmlns="http://www.w3.org/2000/svg">
<path d="M13.6685 7.93286L9.22407 4.88525C9.16828 4.84696 9.10343 4.82497 9.03644 4.82164C8.96945 4.8183 8.90284 4.83373 8.84371 4.86629C8.78458 4.89885 8.73516 4.94731 8.70072 5.00651C8.66627 5.0657 8.6481 5.1334 8.64815 5.20239V11.2976C8.64807 11.3666 8.6662 11.4343 8.70061 11.4935C8.73502 11.5527 8.78441 11.6012 8.84352 11.6338C8.90268 11.6664 8.96933 11.6818 9.03636 11.6785C9.10339 11.6751 9.16827 11.6531 9.22407 11.6148L13.6685 8.56714C13.7193 8.53237 13.761 8.48522 13.7898 8.42989C13.8186 8.37456 13.8337 8.31277 13.8337 8.25C13.8337 8.18723 13.8186 8.12544 13.7898 8.07011C13.761 8.01478 13.7193 7.96763 13.6685 7.93286ZM9.38889 10.5862V5.91382L12.7954 8.25L9.38889 10.5862ZM19.987 2.77668C19.9146 2.48402 19.7756 2.21325 19.5815 1.98672C19.3873 1.76019 19.1436 1.58439 18.8704 1.47383C15.7407 0.230019 10.7102 0.250019 10.5 0.250019C10.2898 0.250019 5.25926 0.230019 2.12963 1.47383C1.85652 1.5843 1.61285 1.75995 1.4187 1.98631C1.22455 2.21266 1.08549 2.48324 1.01296 2.77573C0.777778 3.7043 0.5 5.4081 0.5 8.25C0.5 11.0919 0.777778 12.7957 1.01296 13.7243C1.08549 14.0168 1.22455 14.2873 1.4187 14.5137C1.61285 14.74 1.85652 14.9157 2.12963 15.0262C5.25926 16.27 10.2898 16.25 10.5 16.25H10.5657C11.2037 16.25 15.8972 16.209 18.8731 15.0262C19.1463 14.9157 19.3899 14.74 19.5841 14.5137C19.7782 14.2873 19.9173 14.0168 19.9898 13.7243C20.2222 12.7947 20.5 11.0919 20.5 8.25C20.5 5.4081 20.2222 3.7043 19.987 2.77573V2.77668ZM19.2704 13.5386C19.2273 13.7141 19.1444 13.8766 19.0283 14.0127C18.9122 14.1488 18.7664 14.2546 18.6028 14.3214C15.6056 15.5062 10.5528 15.4881 10.5 15.4881C10.4472 15.4881 5.39722 15.5062 2.4 14.3157C2.23639 14.2489 2.09055 14.1431 1.97448 14.007C1.85841 13.8709 1.77544 13.7084 1.73241 13.5328C1.50648 12.6471 1.24074 11.0119 1.24074 8.25C1.24074 5.4881 1.50648 3.85287 1.72963 2.96716C1.77267 2.7916 1.85564 2.62908 1.9717 2.49298C2.08777 2.35687 2.23361 2.25107 2.39722 2.1843C5.39444 0.993827 10.4472 1.01192 10.5 1.01192C10.5528 1.01192 15.6028 0.992875 18.6 2.1843C18.7636 2.25107 18.9095 2.35687 19.0255 2.49298C19.1416 2.62908 19.2246 2.7916 19.2676 2.96716C19.4935 3.85287 19.7593 5.4881 19.7593 8.25C19.7593 11.0119 19.4935 12.6471 19.2704 13.5328V13.5386Z" fill="black"/>
</svg>
