<svg width="611" height="325" viewBox="0 0 611 325" fill="none" xmlns="http://www.w3.org/2000/svg">
<path d="M70.6811 275.422C67.9593 296.832 84.2487 307.537 109.368 296.832C132.445 299.891 143.976 277.716 134.474 257.836C134.353 245.947 129.73 237.19 117.513 234.132C114.791 214.251 89.6785 211.958 87.6492 234.132C67.2838 234.132 60.4936 262.423 70.6811 275.422Z" fill="#779941"/>
<path d="M101.216 289.95V322.065H108.003V280.775L120.22 249.425H117.506L105.967 272.364V243.308H103.252V283.833L88.3203 266.247L86.9629 267.776L101.216 289.95Z" fill="#266B3C"/>
<rect x="404" y="30.5859" width="101.809" height="292.091" fill="#779A40"/>
<rect x="404" y="30.5859" width="101.809" height="18.3513" fill="#487E45"/>
<rect x="404" y="171.278" width="101.809" height="18.3513" fill="#487E45"/>
<rect x="404" y="91.7568" width="101.809" height="38.2318" fill="#487E45"/>
<rect x="420.289" y="48.9365" width="14.9319" height="16.822" fill="#A9C1CF"/>
<rect x="447.438" y="48.9365" width="14.9319" height="16.822" fill="#A9C1CF"/>
<rect x="447.438" y="90.2266" width="14.9319" height="16.822" fill="#A9C1CF"/>
<rect x="447.438" y="131.518" width="14.9319" height="16.822" fill="#A9C1CF"/>
<rect x="474.586" y="48.9365" width="14.9319" height="16.822" fill="#A9C1CF"/>
<rect x="474.586" y="90.2266" width="14.9319" height="16.822" fill="#A9C1CF"/>
<rect x="474.586" y="131.518" width="14.9319" height="16.822" fill="#A9C1CF"/>
<rect x="420.289" y="90.2266" width="14.9319" height="16.822" fill="#A9C1CF"/>
<rect x="420.289" y="131.518" width="14.9319" height="16.822" fill="#A9C1CF"/>
<path d="M416.217 0H439.293L465.085 30.5854H416.217V0Z" fill="#779A3F"/>
<rect x="261" y="151.06" width="176.468" height="171.57" fill="#B6D8AC"/>
<rect x="261" y="151.06" width="181.898" height="9.02999" fill="#9EBF53"/>
<rect x="261" y="217.28" width="181.898" height="9.02999" fill="#9EBF53"/>
<rect x="261" y="133" width="85.5193" height="27.09" fill="#7CB34C"/>
<rect x="269.145" y="169.12" width="12.217" height="13.545" fill="#6FBE68"/>
<rect x="269.145" y="193.2" width="12.217" height="13.545" fill="#6FBE68"/>
<rect x="288.148" y="169.12" width="12.217" height="13.545" fill="#6FBE68"/>
<rect x="288.148" y="193.2" width="12.217" height="13.545" fill="#6FBE68"/>
<rect x="307.154" y="169.12" width="12.217" height="13.545" fill="#6FBE68"/>
<rect x="307.154" y="193.2" width="12.217" height="13.545" fill="#6FBE68"/>
<rect x="324.801" y="169.12" width="12.217" height="13.545" fill="#6FBE68"/>
<rect x="324.801" y="193.2" width="12.217" height="13.545" fill="#6FBE68"/>
<rect x="343.807" y="169.12" width="12.217" height="13.545" fill="#6FBE68"/>
<rect x="343.807" y="193.2" width="12.217" height="13.545" fill="#6FBE68"/>
<rect x="361.451" y="169.12" width="12.217" height="13.545" fill="#6FBE68"/>
<rect x="361.451" y="193.2" width="12.217" height="13.545" fill="#6FBE68"/>
<rect x="380.457" y="169.12" width="12.217" height="13.545" fill="#6FBE68"/>
<rect x="380.457" y="193.2" width="12.217" height="13.545" fill="#6FBE68"/>
<rect x="398.104" y="169.12" width="12.217" height="13.545" fill="#6FBE68"/>
<rect x="398.104" y="193.2" width="12.217" height="13.545" fill="#6FBE68"/>
<rect x="417.107" y="169.12" width="12.217" height="13.545" fill="#6FBE68"/>
<rect x="417.107" y="193.2" width="12.217" height="13.545" fill="#6FBE68"/>
<rect x="118.715" y="31" width="76.0172" height="292.091" fill="#5F803E"/>
<rect x="116" y="31" width="81.447" height="4.58782" fill="#2F7442"/>
<rect x="129.574" y="49.3516" width="9.50215" height="200.335" fill="#97C779"/>
<rect x="151.295" y="49.3516" width="9.50215" height="200.335" fill="#97C779"/>
<rect x="173.014" y="49.3516" width="9.50215" height="200.335" fill="#97C779"/>
<path d="M167.426 250.573C158.097 289.444 175.817 314.658 223.378 299.95C241.973 305.352 256.016 304.152 267.207 283.141C281.188 276.837 286.78 254.637 277.465 235.865C294.243 211.702 277.465 180.185 256.016 180.185C253.212 143.415 188.874 144.466 188.874 180.185C157.162 174.932 141.312 231.663 167.426 250.573Z" fill="#4CA640"/>
<path d="M214.974 277.888V322.012H226.165V267.382L255.073 223.258L253.208 220.106L226.165 252.674V194.893H219.637V221.157L203.784 201.196V205.398L218.704 231.663V267.382L190.728 241.118L188.863 244.269L214.974 277.888Z" fill="#217B46"/>
<path d="M516.591 253.784C509.059 285.17 523.366 305.529 561.769 293.653C576.783 298.015 588.123 297.046 597.158 280.081C608.447 274.991 612.962 257.066 605.441 241.908C618.988 222.398 605.441 196.95 588.123 196.95C585.858 167.261 533.91 168.109 533.91 196.95C508.304 192.709 495.506 238.515 516.591 253.784Z" fill="#4CA640"/>
<path d="M554.758 282.965V322.405H563.972V273.574L587.776 234.135L586.24 231.317L563.972 260.428V208.78H558.597V232.256L545.544 214.415V218.171L557.829 241.647V273.574L534.794 250.098L533.258 252.915L554.758 282.965Z" fill="#217B46"/>
<path d="M81.447 62.7031H0V72.6434H81.447V62.7031Z" fill="#759941"/>
<path d="M8.82227 39V62.7037H30.5415V48.9403L8.82227 39Z" fill="#7CB34C"/>
<path d="M78.7321 324.973V72.6436H0V324.973H78.7321Z" fill="#8DB24D"/>
<path d="M75.3384 196.515H0V201.102H75.3384V196.515Z" fill="#80A645"/>
<path d="M6.10748 211.043H3.39258V261.509H6.10748V211.043Z" fill="#4E8C42"/>
<path d="M12.8946 211.043H10.1797V261.509H12.8946V211.043Z" fill="#408C40"/>
<path d="M19.6836 211.043H16.9688V261.509H19.6836V211.043Z" fill="#4E8C42"/>
<path d="M26.4688 211.043H23.7539V261.509H26.4688V211.043Z" fill="#408C40"/>
<path d="M33.2559 211.043H30.541V261.509H33.2559V211.043Z" fill="#4E8C42"/>
<path d="M41.4024 211.043H38.6875V261.509H41.4024V211.043Z" fill="#408C40"/>
<path d="M49.545 211.043H46.8301V261.509H49.545V211.043Z" fill="#4E8C42"/>
<path d="M57.6915 211.043H54.9766V261.509H57.6915V211.043Z" fill="#408C40"/>
<path d="M65.836 211.043H63.1211V261.509H65.836V211.043Z" fill="#4E8C42"/>
<path d="M73.9805 211.043H71.2656V261.509H73.9805V211.043Z" fill="#408C40"/>
<path d="M12.8947 81.8193H3.39258V106.288H12.8947V81.8193Z" fill="#A7C0D0"/>
<path d="M27.8264 81.8193H18.3242V106.288H27.8264V81.8193Z" fill="#A7C0D0"/>
<path d="M42.76 81.8193H33.2578V106.288H42.76V81.8193Z" fill="#A7C0D0"/>
<path d="M57.6916 81.8193H48.1895V106.288H57.6916V81.8193Z" fill="#A7C0D0"/>
<path d="M72.6232 81.8193H63.1211V106.288H72.6232V81.8193Z" fill="#A7C0D0"/>
<path d="M12.217 123.109H2.71484V147.578H12.217V123.109Z" fill="#A7C0D0"/>
<path d="M12.217 162.871H2.71484V187.339H12.217V162.871Z" fill="#A7C0D0"/>
<path d="M27.1467 162.871H17.6445V187.339H27.1467V162.871Z" fill="#A7C0D0"/>
<path d="M42.0803 162.871H32.5781V187.339H42.0803V162.871Z" fill="#A7C0D0"/>
<path d="M57.0119 162.871H47.5098V187.339H57.0119V162.871Z" fill="#A7C0D0"/>
<path d="M71.9436 162.871H62.4414V187.339H71.9436V162.871Z" fill="#A7C0D0"/>
<path d="M27.1467 123.109H17.6445V147.578H27.1467V123.109Z" fill="#A7C0D0"/>
<path d="M42.0803 123.109H32.5781V147.578H42.0803V123.109Z" fill="#A7C0D0"/>
<path d="M57.0119 123.109H47.5098V147.578H57.0119V123.109Z" fill="#A7C0D0"/>
<path d="M71.9436 123.109H62.4414V147.578H71.9436V123.109Z" fill="#A7C0D0"/>
</svg>
