<svg width="17" height="17" viewBox="0 0 17 17" fill="none" xmlns="http://www.w3.org/2000/svg">
<path d="M9.50949 9.03133H7.49074C7.43008 9.03131 7.37124 9.05205 7.324 9.09011C7.27677 9.12816 7.24398 9.18124 7.23109 9.24051L6.81472 11.1563H10.1855L9.76914 9.24051C9.75625 9.18124 9.72346 9.12816 9.67622 9.09011C9.62898 9.05205 9.57014 9.03131 9.50949 9.03133ZM2.10851 12.3516L1.12902 14.0822C1.07293 14.1812 1.05015 14.2957 1.06402 14.4087C1.07789 14.5216 1.12767 14.6272 1.20605 14.7097C1.25774 14.7629 1.31974 14.805 1.38824 14.8334C1.45674 14.8619 1.53032 14.876 1.60449 14.8751H4.70499C4.76565 14.8751 4.82449 14.8544 4.87173 14.8163C4.91896 14.7783 4.95175 14.7252 4.96464 14.6659L5.49589 12.2188H2.3396C2.2928 12.2186 2.24677 12.2308 2.20619 12.2542C2.16561 12.2775 2.13191 12.3111 2.10851 12.3516ZM15.8686 14.0782L14.8917 12.3516C14.8683 12.3111 14.8346 12.2775 14.794 12.2542C14.7535 12.2308 14.7074 12.2186 14.6606 12.2188H11.5037L12.0349 14.6659C12.0478 14.7252 12.0806 14.7783 12.1278 14.8163C12.1751 14.8544 12.2339 14.8751 12.2946 14.8751H15.3904C15.4646 14.876 15.5382 14.8619 15.6067 14.8334C15.6752 14.805 15.7372 14.7629 15.7889 14.7097C15.8681 14.6278 15.9189 14.5226 15.9337 14.4096C15.9485 14.2966 15.9266 14.1818 15.8712 14.0822L15.8686 14.0782ZM13.9912 10.7579L13.1665 9.29696C13.12 9.21475 13.0524 9.14644 12.9707 9.09905C12.889 9.05166 12.7961 9.02691 12.7016 9.02735H11.1404C11.1007 9.02734 11.0616 9.03621 11.0258 9.05333C10.99 9.07045 10.9584 9.09537 10.9335 9.12626C10.9086 9.15715 10.891 9.19324 10.8818 9.23185C10.8727 9.27047 10.8723 9.31064 10.8808 9.34942L11.2726 11.1523H13.7595C13.8057 11.1523 13.8511 11.1401 13.8911 11.1171C13.9312 11.0941 13.9646 11.0611 13.988 11.0213C14.0114 10.9815 14.024 10.9362 14.0246 10.89C14.0251 10.8438 14.0136 10.7983 13.9912 10.7579ZM5.8598 9.03133H4.2966C4.20214 9.03089 4.10928 9.05564 4.02757 9.10303C3.94586 9.15042 3.87827 9.21874 3.83175 9.30094L3.00898 10.7579C2.98559 10.7984 2.97331 10.8444 2.97339 10.8911C2.97346 10.9379 2.98589 10.9838 3.00941 11.0243C3.03292 11.0647 3.0667 11.0982 3.10732 11.1214C3.14794 11.1446 3.19396 11.1566 3.24074 11.1563H5.72765L6.11945 9.3534C6.12788 9.31463 6.12752 9.27446 6.11839 9.23584C6.10925 9.19722 6.09159 9.16114 6.06668 9.13024C6.04178 9.09935 6.01026 9.07443 5.97446 9.05731C5.93866 9.0402 5.89948 9.03132 5.8598 9.03133ZM10.4166 12.2188H6.58363L6.07628 14.553C6.06785 14.5918 6.06821 14.632 6.07734 14.6706C6.08648 14.7092 6.10414 14.7453 6.12905 14.7762C6.15395 14.8071 6.18547 14.832 6.22127 14.8491C6.25707 14.8662 6.29625 14.8751 6.33593 14.8751H10.6643C10.704 14.8751 10.7432 14.8662 10.779 14.8491C10.8148 14.832 10.8463 14.8071 10.8712 14.7762C10.8961 14.7453 10.9137 14.7092 10.9229 14.6706C10.932 14.632 10.9324 14.5918 10.9239 14.553L10.4166 12.2188Z" fill="#006FFF"/>
<path d="M2.34896 6.54818C2.24933 6.64781 2.19336 6.78293 2.19336 6.92383C2.19336 7.06472 2.24933 7.19985 2.34896 7.29948C2.44859 7.39911 2.58371 7.45508 2.72461 7.45508H3.78711C3.92801 7.45508 4.06313 7.39911 4.16276 7.29948C4.26239 7.19985 4.31836 7.06472 4.31836 6.92383C4.31836 6.78293 4.26239 6.64781 4.16276 6.54818C4.06313 6.44855 3.92801 6.39258 3.78711 6.39258H2.72461C2.58371 6.39258 2.44859 6.44855 2.34896 6.54818Z" fill="#F3B200"/>
<path d="M5.18762 4.07463C5.04664 4.07463 4.91144 4.01863 4.81176 3.91895L4.0607 3.16723C3.96528 3.06679 3.91287 2.93305 3.91464 2.79452C3.91641 2.65599 3.97223 2.52363 4.0702 2.42567C4.16816 2.3277 4.30052 2.27188 4.43905 2.27011C4.57758 2.26834 4.71132 2.32075 4.81176 2.41617L5.56348 3.16723C5.66316 3.26691 5.71916 3.40211 5.71916 3.54309C5.71916 3.68406 5.66316 3.81926 5.56348 3.91895C5.46379 4.01863 5.32859 4.07463 5.18762 4.07463Z" fill="#F3B200"/>
<path d="M8.94401 2.51823C8.84438 2.61786 8.70926 2.67383 8.56836 2.67383C8.42746 2.67383 8.29234 2.61786 8.19271 2.51823C8.09308 2.4186 8.03711 2.28347 8.03711 2.14258V1.08008C8.03711 0.939182 8.09308 0.804056 8.19271 0.704428C8.29234 0.604799 8.42746 0.548828 8.56836 0.548828C8.70926 0.548828 8.84438 0.604799 8.94401 0.704428C9.04364 0.804056 9.09961 0.939182 9.09961 1.08008V2.14258C9.09961 2.28347 9.04364 2.4186 8.94401 2.51823Z" fill="#F3B200"/>
<path d="M12.1525 4.03403C12.088 4.0607 12.0189 4.07439 11.9491 4.07434C11.844 4.07442 11.7412 4.04331 11.6537 3.98494C11.5663 3.92657 11.4981 3.84357 11.4579 3.74644C11.4177 3.64932 11.4071 3.54244 11.4277 3.43933C11.4482 3.33622 11.4989 3.24152 11.5732 3.16723L12.325 2.41617C12.4254 2.32075 12.5591 2.26834 12.6977 2.27011C12.8362 2.27188 12.9686 2.3277 13.0665 2.42567C13.1645 2.52363 13.2203 2.65599 13.2221 2.79452C13.2239 2.93305 13.1714 3.06679 13.076 3.16723L12.325 3.91895C12.2756 3.96826 12.217 4.00737 12.1525 4.03403Z" fill="#F3B200"/>
<path d="M12.974 7.29948C12.8743 7.19985 12.8184 7.06472 12.8184 6.92383C12.8184 6.78293 12.8743 6.64781 12.974 6.54818C13.0736 6.44855 13.2087 6.39258 13.3496 6.39258H14.4121C14.553 6.39258 14.6881 6.44855 14.7878 6.54818C14.8874 6.64781 14.9434 6.78293 14.9434 6.92383C14.9434 7.06472 14.8874 7.19985 14.7878 7.29948C14.6881 7.39911 14.553 7.45508 14.4121 7.45508H13.3496C13.2087 7.45508 13.0736 7.39911 12.974 7.29948Z" fill="#F3B200"/>
<path d="M6.28776 7.29948C6.18813 7.39911 6.05301 7.45508 5.91211 7.45508C5.77121 7.45508 5.63609 7.39911 5.53646 7.29948C5.43683 7.19985 5.38086 7.06472 5.38086 6.92383C5.38086 6.07845 5.71668 5.2677 6.31446 4.66993C6.91223 4.07215 7.72298 3.73633 8.56836 3.73633C9.41374 3.73633 10.2245 4.07215 10.8223 4.66993C11.42 5.2677 11.7559 6.07845 11.7559 6.92383C11.7559 7.06472 11.6999 7.19985 11.6003 7.29948C11.5006 7.39911 11.3655 7.45508 11.2246 7.45508C11.0837 7.45508 10.9486 7.39911 10.849 7.29948C10.7493 7.19985 10.6934 7.06472 10.6934 6.92383C10.6934 6.36024 10.4695 5.81974 10.071 5.42123C9.67245 5.02271 9.13194 4.79883 8.56836 4.79883C8.00477 4.79883 7.46427 5.02271 7.06576 5.42123C6.66724 5.81974 6.44336 6.36024 6.44336 6.92383C6.44336 7.06472 6.38739 7.19985 6.28776 7.29948Z" fill="#F3B200"/>
</svg>
